<?xml version="1.0" encoding="utf-8"?>
<!-- Generator: Adobe Illustrator 24.2.3, SVG Export Plug-In . SVG Version: 6.00 Build 0)  -->
<svg version="1.1" id="Layer_1" xmlns="http://www.w3.org/2000/svg" xmlns:xlink="http://www.w3.org/1999/xlink" x="0px" y="0px"
	 viewBox="0 0 37.4 27.4" style="enable-background:new 0 0 37.4 27.4;" xml:space="preserve">
<style type="text/css">
	.st0{fill:#CFCFCF;}
</style>
<g>
	<g>
		<path class="st0" d="M19.8,20.9l1-1c0,0,0,0,0,0l10-10c0.6-0.6,0.6-1.6,0-2.2l-1-1c-0.6-0.6-1.6-0.6-2.2,0l-8.9,8.9L9.7,6.6
			C9.1,6,8.1,6,7.5,6.6l-1,1c-0.6,0.6-0.6,1.6,0,2.2l10,10c0,0,0,0,0,0l1,1c0.3,0.3,0.7,0.5,1.1,0.5C19,21.4,19.4,21.2,19.8,20.9z"
			/>
	</g>
</g>
</svg>
