<?xml version="1.0" encoding="utf-8"?>
<!-- Generator: Adobe Illustrator 24.2.3, SVG Export Plug-In . SVG Version: 6.00 Build 0)  -->
<svg version="1.1" id="Layer_1" xmlns="http://www.w3.org/2000/svg" xmlns:xlink="http://www.w3.org/1999/xlink" x="0px" y="0px"
	 viewBox="0 0 27.36 37.44" style="enable-background:new 0 0 27.36 37.44;" xml:space="preserve">
<style type="text/css">
	.st0{fill:#CFCFCF;}
</style>
<g>
	
		<image style="overflow:visible;opacity:0.7;" width="114" height="156" xlink:href="EC8ADDFEDB3AB30.png"  transform="matrix(0.24 0 0 0.24 0 0)">
	</image>
	<g>
		<path class="st0" d="M20.89076,17.68457l-1.00513-1.00507c-0.00446-0.00446-0.00983-0.00732-0.01434-0.01172L9.86263,6.65918
			c-0.6153-0.6153-1.61285-0.6153-2.22815,0L6.62941,7.66425c-0.6153,0.6153-0.6153,1.61285,0,2.22815l8.90759,8.90759
			l-8.90759,8.90759c-0.6153,0.6153-0.6153,1.61285,0,2.22815l1.00507,1.00513c0.6153,0.61523,1.61285,0.61523,2.22815,0
			l10.00867-10.00867c0.00452-0.00439,0.00989-0.00726,0.01434-0.01172l1.00513-1.00507
			c0.30798-0.30798,0.46167-0.71173,0.4613-1.11542C21.35243,18.3963,21.19875,17.99256,20.89076,17.68457z"/>
	</g>
</g>
</svg>
