<?xml version="1.0" encoding="utf-8"?>
<!-- Generator: Adobe Illustrator 24.2.3, SVG Export Plug-In . SVG Version: 6.00 Build 0)  -->
<svg version="1.1" id="Layer_1" xmlns="http://www.w3.org/2000/svg" xmlns:xlink="http://www.w3.org/1999/xlink" x="0px" y="0px"
	 viewBox="0 0 200 200" style="enable-background:new 0 0 200 200;" xml:space="preserve">
<style type="text/css">
	.st0{fill:#E9EC6E;}
</style>
<g>
	<g>
		<path class="st0" d="M100,200C44.86,200,0,155.14,0,100S44.86,0,100,0s100,44.86,100,100S155.14,200,100,200z M100,9.14
			C49.9,9.14,9.14,49.9,9.14,100S49.9,190.86,100,190.86s90.86-40.76,90.86-90.86S150.1,9.14,100,9.14z"/>
	</g>
	<g>
		<path class="st0" d="M75.51,167.8c-1.99,0-3.99-0.46-5.86-1.39c-4.43-2.22-7.19-6.69-7.19-11.65V45.25
			c0-4.96,2.76-9.43,7.19-11.65c4.43-2.22,9.66-1.76,13.64,1.2l73.4,54.75c3.33,2.48,5.24,6.29,5.24,10.45s-1.91,7.96-5.24,10.45
			l-73.4,54.75C80.98,166.92,78.26,167.8,75.51,167.8z M75.54,41.34c-0.79,0-1.44,0.26-1.79,0.43c-0.65,0.32-2.15,1.31-2.15,3.48
			v109.51c0,2.17,1.5,3.15,2.15,3.48c0.64,0.32,2.33,0.94,4.07-0.36l73.4-54.75c0.99-0.74,1.56-1.88,1.56-3.12s-0.57-2.38-1.56-3.12
			l-73.4-54.75C77.02,41.53,76.22,41.34,75.54,41.34z"/>
	</g>
</g>
</svg>
