<?xml version="1.0" encoding="utf-8"?>
<!-- Generator: Adobe Illustrator 24.2.3, SVG Export Plug-In . SVG Version: 6.00 Build 0)  -->
<svg version="1.1" id="Layer_1" xmlns="http://www.w3.org/2000/svg" xmlns:xlink="http://www.w3.org/1999/xlink" x="0px" y="0px"
	 viewBox="0 0 27.4 37.4" style="enable-background:new 0 0 27.4 37.4;" xml:space="preserve">
<style type="text/css">
	.st0{fill:#CFCFCF;}
</style>
<g>
	
		<image style="overflow:visible;opacity:0.7;" width="114" height="156" xlink:href="3D8E4FD40F244C71.png"  transform="matrix(0.24 0 0 0.24 0 0)">
	</image>
	<g>
		<path class="st0" d="M6.6,19.9l1,1c0,0,0,0,0,0l10,10c0.6,0.6,1.6,0.6,2.2,0l1-1c0.6-0.6,0.6-1.6,0-2.2L12,18.8l8.9-8.9
			c0.6-0.6,0.6-1.6,0-2.2l-1-1c-0.6-0.6-1.6-0.6-2.2,0l-10,10c0,0,0,0,0,0l-1,1c-0.3,0.3-0.5,0.7-0.5,1.1
			C6.2,19.2,6.3,19.6,6.6,19.9z"/>
	</g>
</g>
</svg>
