<?xml version="1.0" encoding="utf-8"?>
<!-- Generator: Adobe Illustrator 24.2.3, SVG Export Plug-In . SVG Version: 6.00 Build 0)  -->
<svg version="1.1" xmlns="http://www.w3.org/2000/svg" xmlns:xlink="http://www.w3.org/1999/xlink" x="0px" y="0px"
	 viewBox="0 0 878.6 552.2" style="enable-background:new 0 0 878.6 552.2;" xml:space="preserve">
<style type="text/css">
	.st0{fill:#CCCCCC;}
	.st1{fill:#E6E6E6;}
	.st2{fill:#1B1B1B;}
	.st3{clip-path:url(#SVGID_2_);}
	.st4{fill:none;stroke:#5E5E5E;stroke-width:2;}
	.st5{fill:none;stroke:#E9EC6E;stroke-miterlimit:10;}
	.st6{opacity:0.7;}
	.st7{opacity:0.5;}
	.st8{fill:#8A8A8A;}
	.st9{fill:#666666;}
	.st10{fill:#FFFFFF;}
	.st11{fill:#E9EC6E;}
	.st12{opacity:0.2;enable-background:new    ;}
	.st13{fill:#F2F2F2;}
</style>
<g id="f241e7b9-92bc-4a39-8e1f-dd6f59c49ece">
	<path class="st0" d="M837.9,552.2H95.2c-13.8,0-24.9-11.1-24.9-24.9l0,0c269.2-31.3,533.3-31.3,792.4,0l0,0
		C862.8,541.1,851.6,552.2,837.9,552.2z"/>
	<path class="st1" d="M862.8,528.8l-792.4-1.5l91.8-154.5l0.4-0.7V31.5c0-17.4,14.1-31.5,31.5-31.5c0,0,0,0,0,0h540.5
		c17.4,0,31.5,14.1,31.5,31.5c0,0,0,0,0,0v342.9L862.8,528.8z"/>
	<path class="st0" d="M197,394c-1.7,0-3.3,1-4,2.6l-28.3,61.5c-1,2.2,0,4.8,2.2,5.8c0.6,0.3,1.2,0.4,1.8,0.4h595.1
		c2.4,0,4.4-2,4.4-4.4c0-0.7-0.2-1.4-0.5-2l-30.8-61.5c-0.7-1.5-2.3-2.4-3.9-2.4L197,394z"/>
	<g>
		<path class="st2" d="M193.4,22c-5.7,0-10.2,4.6-10.3,10.3v310.5c0,5.7,4.6,10.2,10.3,10.3h546.4c5.7,0,10.2-4.6,10.3-10.3V32.2
			c0-5.7-4.6-10.2-10.3-10.3L193.4,22z"/>
		<g>
			<defs>
				<path id="SVGID_1_" d="M193.4,22c-5.7,0-10.2,4.6-10.3,10.3v310.5c0,5.7,4.6,10.2,10.3,10.3h546.4c5.7,0,10.2-4.6,10.3-10.3
					V32.2c0-5.7-4.6-10.2-10.3-10.3L193.4,22z"/>
			</defs>
			<clipPath id="SVGID_2_">
				<use xlink:href="#SVGID_1_"  style="overflow:visible;"/>
			</clipPath>
			<g class="st3">
				<g>
					<path class="st4" d="M210.4,171.8h-11.9l-7.2,41.4h-9.8l7.2-41.4h-11.8l1.5-8.4h33.5L210.4,171.8z"/>
					<path class="st4" d="M248.2,171.8h-11.9l-7.2,41.4h-9.8l7.2-41.4h-11.8l1.5-8.4h33.5L248.2,171.8z"/>
					<path class="st5" d="M294.7,213.2h-9.6l-8.7-33l-5.7,33h-9.8l8.6-49.8h9.6l8.7,33l5.7-33h9.8L294.7,213.2z"/>
					<path class="st5" d="M313,213.2h-9.8l8.6-49.8h9.8L313,213.2z"/>
					<path class="st5" d="M356.8,196.5c-0.3,2.6-0.9,5-1.9,7.1c-1,2.1-2.3,4-3.8,5.5c-1.6,1.5-3.5,2.7-5.7,3.5
						c-2.2,0.8-4.6,1.2-7.3,1.1c-2,0-3.8-0.4-5.3-0.9c-1.5-0.6-2.8-1.4-3.9-2.4c-1.1-1-2-2.2-2.7-3.5c-0.7-1.4-1.2-2.8-1.6-4.4
						c-0.4-1.6-0.6-3.2-0.6-4.9c0-1.7,0-3.4,0.3-5.2l1.3-8.5c0.4-2.8,1.1-5.4,2.1-8c1-2.6,2.3-4.9,3.9-6.9c1.6-2,3.6-3.6,6-4.8
						c2.3-1.2,5.1-1.7,8.2-1.7c2.7,0,4.9,0.5,6.7,1.5c1.8,0.9,3.3,2.2,4.4,3.8c1.1,1.6,2,3.4,2.5,5.6c0.5,2.1,0.8,4.4,0.8,6.8
						l-9.9,0c0.1-1.2,0.1-2.3,0.1-3.4c0-1.1-0.2-2.1-0.5-2.9c-0.3-0.9-0.9-1.6-1.6-2.1c-0.8-0.5-1.8-0.8-3.2-0.9
						c-1.2,0-2.3,0.1-3.2,0.5c-0.9,0.4-1.7,0.9-2.4,1.5s-1.2,1.4-1.7,2.3c-0.5,0.9-0.8,1.8-1.1,2.8c-0.3,1-0.6,2-0.8,3
						c-0.2,1-0.3,2-0.5,3l-1.2,8.6c-0.1,0.8-0.2,1.6-0.3,2.6c-0.1,0.9-0.2,1.9-0.2,2.8c0,0.9,0,1.9,0.1,2.8s0.4,1.7,0.8,2.4
						c0.4,0.7,0.9,1.3,1.6,1.7c0.7,0.4,1.6,0.7,2.7,0.7c1.5,0.1,2.7-0.1,3.7-0.6c1-0.5,1.8-1.1,2.4-1.9c0.6-0.8,1.1-1.8,1.5-2.9
						c0.4-1.1,0.6-2.3,0.8-3.6L356.8,196.5z"/>
					<path class="st5" d="M401.5,203h-13.2l-4.3,10.2h-10.7l23.7-49.8h9l6.5,49.8h-10.2L401.5,203z M391.8,194.6h9l-1.4-17.6
						L391.8,194.6z"/>
					<path class="st5" d="M428.7,204.8h17.1l-1.5,8.3h-26.9l8.6-49.8h9.8L428.7,204.8z"/>
					<path class="st5" d="M461.5,204.8h17.1l-1.5,8.3h-26.9l8.6-49.8h9.8L461.5,204.8z"/>
					<path class="st5" d="M506,199.9c0.1-1,0.1-1.9-0.1-2.7c-0.2-0.8-0.6-1.4-1.1-2c-0.5-0.6-1.1-1.1-1.8-1.6
						c-0.7-0.5-1.5-0.9-2.4-1.3c-1.6-0.8-3.2-1.6-4.6-2.6c-1.5-1-2.7-2.1-3.8-3.3c-1.1-1.2-1.9-2.6-2.5-4.2
						c-0.6-1.6-0.8-3.3-0.7-5.3c0.1-2.2,0.7-4.2,1.7-6c1-1.8,2.2-3.3,3.8-4.5c1.5-1.2,3.3-2.2,5.3-2.8c2-0.6,4-0.9,6.2-0.9
						c2.2,0,4.2,0.5,5.9,1.3c1.7,0.8,3.2,1.9,4.3,3.3c1.1,1.4,2,3,2.5,4.9c0.6,1.9,0.8,3.9,0.7,6l-9.8,0c0-0.8,0-1.7-0.1-2.5
						c-0.1-0.8-0.3-1.6-0.6-2.3c-0.3-0.7-0.8-1.2-1.4-1.7c-0.6-0.4-1.5-0.6-2.5-0.7c-0.9,0-1.7,0.1-2.4,0.4
						c-0.7,0.3-1.4,0.7-1.9,1.3s-1,1.2-1.3,1.9c-0.4,0.7-0.6,1.5-0.7,2.4c-0.1,0.9,0,1.7,0.3,2.4c0.3,0.7,0.8,1.3,1.3,1.9
						c0.6,0.6,1.2,1.1,1.9,1.5c0.7,0.4,1.4,0.8,2.2,1.1c1.8,0.8,3.4,1.7,4.8,2.7c1.5,1,2.7,2.1,3.7,3.4c1,1.3,1.8,2.7,2.3,4.3
						c0.5,1.6,0.7,3.5,0.5,5.6c-0.2,2.3-0.7,4.3-1.6,6c-0.9,1.8-2.1,3.2-3.6,4.4c-1.5,1.2-3.2,2.1-5.1,2.7c-1.9,0.6-4,0.9-6.2,0.9
						c-2.4,0-4.5-0.5-6.4-1.3c-1.9-0.8-3.5-2-4.8-3.5c-1.3-1.5-2.3-3.2-2.9-5.2c-0.6-2-0.9-4.2-0.8-6.5l9.8,0
						c-0.1,1.1,0,2.1,0.1,3.1c0.1,1,0.4,1.9,0.8,2.6s1,1.4,1.8,1.8c0.8,0.4,1.8,0.7,3.1,0.7c1.8,0,3.2-0.6,4.2-1.6
						C505.2,203,505.8,201.6,506,199.9z"/>
					<path class="st5" d="M558.6,171.8h-11.9l-7.2,41.4h-9.8l7.2-41.4h-11.8l1.5-8.4h33.5L558.6,171.8z"/>
					<path class="st5" d="M594.1,192.7c-0.3,1.8-0.7,3.7-1.2,5.5c-0.5,1.8-1.2,3.5-2.1,5s-1.8,3-2.9,4.3c-1.1,1.3-2.4,2.5-3.8,3.4
						c-1.4,0.9-3,1.7-4.8,2.2c-1.7,0.5-3.7,0.7-5.7,0.7c-2,0-3.7-0.4-5.3-0.9c-1.5-0.6-2.9-1.3-4-2.3c-1.2-1-2.1-2.1-2.9-3.5
						c-0.8-1.3-1.3-2.8-1.7-4.3c-0.4-1.5-0.6-3.2-0.7-4.9c-0.1-1.7,0-3.4,0.2-5.2l1.3-8.3c0.3-1.9,0.7-3.7,1.2-5.5s1.2-3.5,2.1-5.2
						c0.8-1.6,1.8-3.1,2.9-4.5c1.1-1.4,2.4-2.6,3.8-3.6s3-1.8,4.8-2.3c1.8-0.5,3.7-0.8,5.8-0.7c2,0,3.8,0.4,5.3,1
						c1.5,0.6,2.9,1.4,4,2.5c1.1,1,2.1,2.3,2.8,3.6c0.7,1.4,1.3,2.9,1.7,4.5c0.4,1.6,0.6,3.3,0.7,5c0.1,1.7,0,3.5-0.3,5.2
						L594.1,192.7z M585.4,184.3c0.1-0.8,0.2-1.6,0.3-2.6c0.1-0.9,0.1-1.9,0.1-2.9c0-1-0.1-1.9-0.3-2.8c-0.2-0.9-0.4-1.7-0.9-2.5
						c-0.4-0.7-1-1.3-1.7-1.8c-0.7-0.5-1.6-0.7-2.7-0.8c-1.2,0-2.3,0.1-3.2,0.5c-0.9,0.4-1.8,0.9-2.5,1.6c-0.7,0.7-1.3,1.5-1.8,2.4
						c-0.5,0.9-0.9,1.9-1.3,2.9c-0.4,1-0.6,2-0.9,3.1c-0.2,1-0.4,2.1-0.5,3l-1.2,8.4c-0.1,0.8-0.2,1.6-0.3,2.5s-0.1,1.8-0.1,2.8
						c0,0.9,0.1,1.8,0.3,2.7c0.2,0.9,0.5,1.7,0.9,2.3c0.4,0.7,1,1.2,1.7,1.7c0.7,0.4,1.6,0.7,2.7,0.7c1.8,0.1,3.2-0.3,4.4-1.1
						s2.1-1.8,2.9-3.1s1.3-2.7,1.7-4.2c0.4-1.5,0.7-3,0.9-4.4L585.4,184.3z"/>
					<path class="st5" d="M633.3,171.8h-11.9l-7.2,41.4h-9.8l7.2-41.4h-11.8l1.5-8.4h33.5L633.3,171.8z"/>
					<path class="st5" d="M671.1,171.8h-11.9l-7.2,41.4h-9.8l7.2-41.4h-11.8l1.5-8.4h33.5L671.1,171.8z"/>
					<path class="st4" d="M717.5,213.2H708l-8.7-33l-5.7,33h-9.8l8.6-49.8h9.6l8.7,33l5.7-33h9.8L717.5,213.2z"/>
					<path class="st4" d="M735.9,213.2h-9.8l8.6-49.8h9.8L735.9,213.2z"/>
					<path class="st4" d="M779.6,196.5c-0.3,2.6-0.9,5-1.9,7.1c-1,2.1-2.3,4-3.8,5.5c-1.6,1.5-3.5,2.7-5.7,3.5
						c-2.2,0.8-4.6,1.2-7.3,1.1c-2,0-3.8-0.4-5.3-0.9c-1.5-0.6-2.8-1.4-3.9-2.4c-1.1-1-2-2.2-2.7-3.5c-0.7-1.4-1.2-2.8-1.6-4.4
						c-0.4-1.6-0.6-3.2-0.6-4.9c0-1.7,0-3.4,0.3-5.2l1.3-8.5c0.4-2.8,1.1-5.4,2.1-8c1-2.6,2.3-4.9,3.9-6.9c1.6-2,3.6-3.6,6-4.8
						c2.3-1.2,5.1-1.7,8.2-1.7c2.7,0,4.9,0.5,6.7,1.5c1.8,0.9,3.3,2.2,4.4,3.8c1.1,1.6,2,3.4,2.5,5.6c0.5,2.1,0.8,4.4,0.8,6.8
						l-9.9,0c0.1-1.2,0.1-2.3,0.1-3.4c0-1.1-0.2-2.1-0.5-2.9c-0.3-0.9-0.9-1.6-1.6-2.1c-0.8-0.5-1.8-0.8-3.2-0.9
						c-1.2,0-2.3,0.1-3.2,0.5c-0.9,0.4-1.7,0.9-2.4,1.5s-1.2,1.4-1.7,2.3c-0.5,0.9-0.8,1.8-1.1,2.8c-0.3,1-0.6,2-0.8,3
						c-0.2,1-0.3,2-0.5,3l-1.2,8.6c-0.1,0.8-0.2,1.6-0.3,2.6c-0.1,0.9-0.2,1.9-0.2,2.8c0,0.9,0,1.9,0.1,2.8s0.4,1.7,0.8,2.4
						c0.4,0.7,0.9,1.3,1.6,1.7c0.7,0.4,1.6,0.7,2.7,0.7c1.5,0.1,2.7-0.1,3.7-0.6c1-0.5,1.8-1.1,2.4-1.9c0.6-0.8,1.1-1.8,1.5-2.9
						c0.4-1.1,0.6-2.3,0.8-3.6L779.6,196.5z"/>
				</g>
				<g class="st6">
					<path class="st4" d="M201.4,129c-0.3,2.6-0.9,5-1.9,7.1c-1,2.1-2.3,4-3.8,5.5c-1.6,1.5-3.5,2.7-5.7,3.5
						c-2.2,0.8-4.6,1.2-7.3,1.1c-2,0-3.8-0.4-5.3-0.9c-1.5-0.6-2.8-1.4-3.9-2.4c-1.1-1-2-2.2-2.7-3.5c-0.7-1.4-1.2-2.8-1.6-4.4
						c-0.4-1.6-0.6-3.2-0.6-4.9c0-1.7,0-3.4,0.3-5.2l1.3-8.5c0.4-2.8,1.1-5.4,2.1-8c1-2.6,2.3-4.9,3.9-6.9c1.6-2,3.6-3.6,6-4.8
						c2.3-1.2,5.1-1.7,8.2-1.7c2.7,0,4.9,0.5,6.7,1.5c1.8,0.9,3.3,2.2,4.4,3.8c1.1,1.6,2,3.4,2.5,5.6c0.5,2.1,0.8,4.4,0.8,6.8
						l-9.9,0c0.1-1.2,0.1-2.3,0.1-3.4c0-1.1-0.2-2.1-0.5-2.9c-0.3-0.9-0.9-1.6-1.6-2.1c-0.8-0.5-1.8-0.8-3.2-0.9
						c-1.2,0-2.3,0.1-3.2,0.5c-0.9,0.4-1.7,0.9-2.4,1.5s-1.2,1.4-1.7,2.3c-0.5,0.9-0.8,1.8-1.1,2.8c-0.3,1-0.6,2-0.8,3
						c-0.2,1-0.3,2-0.5,3l-1.2,8.6c-0.1,0.8-0.2,1.6-0.3,2.6c-0.1,0.9-0.2,1.9-0.2,2.8c0,0.9,0,1.9,0.1,2.8s0.4,1.7,0.8,2.4
						c0.4,0.7,0.9,1.3,1.6,1.7c0.7,0.4,1.6,0.7,2.7,0.7c1.5,0.1,2.7-0.1,3.7-0.6c1-0.5,1.8-1.1,2.4-1.9c0.6-0.8,1.1-1.8,1.5-2.9
						c0.4-1.1,0.6-2.3,0.8-3.6L201.4,129z"/>
					<path class="st4" d="M242.6,104.3h-11.9l-7.2,41.4h-9.8l7.2-41.4h-11.8l1.5-8.4h33.5L242.6,104.3z"/>
					<path class="st4" d="M251.6,145.7h-9.8l8.6-49.8h9.8L251.6,145.7z"/>
					<path class="st4" d="M297.7,125.2c-0.3,1.8-0.7,3.7-1.2,5.5c-0.5,1.8-1.2,3.5-2.1,5s-1.8,3-2.9,4.3c-1.1,1.3-2.4,2.5-3.8,3.4
						c-1.4,0.9-3,1.7-4.8,2.2c-1.7,0.5-3.7,0.7-5.7,0.7c-2,0-3.7-0.4-5.3-0.9c-1.5-0.6-2.9-1.3-4-2.3c-1.2-1-2.1-2.1-2.9-3.5
						c-0.8-1.3-1.3-2.8-1.7-4.3c-0.4-1.5-0.6-3.2-0.7-4.9c-0.1-1.7,0-3.4,0.2-5.2l1.3-8.3c0.3-1.9,0.7-3.7,1.2-5.5s1.2-3.5,2.1-5.2
						c0.8-1.6,1.8-3.1,2.9-4.5c1.1-1.4,2.4-2.6,3.8-3.6s3-1.8,4.8-2.3c1.8-0.5,3.7-0.8,5.8-0.7c2,0,3.8,0.4,5.3,1
						c1.5,0.6,2.9,1.4,4,2.5c1.1,1,2.1,2.3,2.8,3.6c0.7,1.4,1.3,2.9,1.7,4.5c0.4,1.6,0.6,3.3,0.7,5c0.1,1.7,0,3.5-0.3,5.2
						L297.7,125.2z M289.1,116.8c0.1-0.8,0.2-1.6,0.3-2.6c0.1-0.9,0.1-1.9,0.1-2.9c0-1-0.1-1.9-0.3-2.8c-0.2-0.9-0.4-1.7-0.9-2.5
						c-0.4-0.7-1-1.3-1.7-1.8c-0.7-0.5-1.6-0.7-2.7-0.8c-1.2,0-2.3,0.1-3.2,0.5c-0.9,0.4-1.8,0.9-2.5,1.6c-0.7,0.7-1.3,1.5-1.8,2.4
						c-0.5,0.9-0.9,1.9-1.3,2.9c-0.4,1-0.6,2-0.9,3.1c-0.2,1-0.4,2.1-0.5,3l-1.2,8.4c-0.1,0.8-0.2,1.6-0.3,2.5s-0.1,1.8-0.1,2.8
						c0,0.9,0.1,1.8,0.3,2.7c0.2,0.9,0.5,1.7,0.9,2.3c0.4,0.7,1,1.2,1.7,1.7c0.7,0.4,1.6,0.7,2.7,0.7c1.8,0.1,3.2-0.3,4.4-1.1
						s2.1-1.8,2.9-3.1s1.3-2.7,1.7-4.2c0.4-1.5,0.7-3,0.9-4.4L289.1,116.8z"/>
					<path class="st4" d="M335.2,145.7h-9.6l-8.7-33l-5.7,33h-9.8l8.6-49.8h9.6l8.7,33l5.7-33h9.8L335.2,145.7z"/>
					<path class="st4" d="M359.3,145.7l8.6-49.8l12.3,0c3,0.1,5.5,0.7,7.6,1.9c2.1,1.2,3.8,2.7,5.1,4.6c1.3,1.9,2.1,4.1,2.6,6.6
						c0.4,2.5,0.5,5.1,0.2,7.9l-1.2,7.7c-0.5,3-1.3,5.7-2.4,8.3c-1.2,2.6-2.6,4.8-4.5,6.7c-1.8,1.9-4,3.4-6.5,4.4
						c-2.5,1.1-5.4,1.6-8.5,1.6H359.3z M376.3,104.3l-5.7,33.1l2.4,0.1c2,0,3.7-0.3,5.1-1c1.4-0.6,2.5-1.5,3.4-2.7
						c0.9-1.2,1.6-2.5,2.1-4.1c0.5-1.5,0.9-3.2,1.1-5l1.1-7.8c0.1-1,0.2-1.9,0.3-2.9c0.1-1,0.1-1.9,0.1-2.8c0-0.9-0.2-1.8-0.4-2.6
						c-0.2-0.8-0.6-1.5-1.1-2.1c-0.5-0.6-1.1-1.1-1.9-1.5c-0.8-0.4-1.8-0.6-3-0.6L376.3,104.3z"/>
					<path class="st4" d="M426.7,124.1h-15.2l-2.3,13.2h18l-1.5,8.3H398l8.6-49.8h27.7l-1.5,8.4H415l-2.1,11.8h15.2L426.7,124.1z"/>
					<path class="st4" d="M454.5,132.4c0.1-1,0.1-1.9-0.1-2.7c-0.2-0.8-0.6-1.4-1.1-2c-0.5-0.6-1.1-1.1-1.8-1.6
						c-0.7-0.5-1.5-0.9-2.4-1.3c-1.6-0.8-3.2-1.6-4.6-2.6c-1.5-1-2.7-2.1-3.8-3.3c-1.1-1.2-1.9-2.6-2.5-4.2
						c-0.6-1.6-0.8-3.3-0.7-5.3c0.1-2.2,0.7-4.2,1.7-6c1-1.8,2.2-3.3,3.8-4.5c1.5-1.2,3.3-2.2,5.3-2.8c2-0.6,4-0.9,6.2-0.9
						c2.2,0,4.2,0.5,5.9,1.3c1.7,0.8,3.2,1.9,4.3,3.3c1.1,1.4,2,3,2.5,4.9c0.6,1.9,0.8,3.9,0.7,6l-9.8,0c0-0.8,0-1.7-0.1-2.5
						c-0.1-0.8-0.3-1.6-0.6-2.3c-0.3-0.7-0.8-1.2-1.4-1.7c-0.6-0.4-1.5-0.6-2.5-0.7c-0.9,0-1.7,0.1-2.4,0.4
						c-0.7,0.3-1.4,0.7-1.9,1.3s-1,1.2-1.3,1.9c-0.4,0.7-0.6,1.5-0.7,2.4c-0.1,0.9,0,1.7,0.3,2.4c0.3,0.7,0.8,1.3,1.3,1.9
						c0.6,0.6,1.2,1.1,1.9,1.5c0.7,0.4,1.4,0.8,2.2,1.1c1.8,0.8,3.4,1.7,4.8,2.7c1.5,1,2.7,2.1,3.7,3.4s1.8,2.7,2.3,4.3
						c0.5,1.6,0.7,3.5,0.5,5.6c-0.2,2.3-0.7,4.3-1.6,6c-0.9,1.8-2.1,3.2-3.6,4.4c-1.5,1.2-3.2,2.1-5.1,2.7c-1.9,0.6-4,0.9-6.2,0.9
						c-2.4,0-4.5-0.5-6.4-1.3c-1.9-0.8-3.5-2-4.8-3.5c-1.3-1.5-2.3-3.2-2.9-5.2c-0.6-2-0.9-4.2-0.8-6.5l9.8,0
						c-0.1,1.1,0,2.1,0.1,3.1c0.1,1,0.4,1.9,0.8,2.6s1,1.4,1.8,1.8c0.8,0.4,1.8,0.7,3.1,0.7c1.8,0,3.2-0.6,4.2-1.6
						C453.7,135.5,454.3,134.1,454.5,132.4z"/>
					<path class="st4" d="M478.9,145.7h-9.8l8.6-49.8h9.8L478.9,145.7z"/>
					<path class="st4" d="M521.6,140c-1,1.1-2.2,2.1-3.5,2.9c-1.3,0.8-2.7,1.5-4.2,2c-1.5,0.5-3,0.9-4.5,1.1
						c-1.5,0.2-3.1,0.3-4.5,0.3c-2.1,0-3.9-0.3-5.4-0.9s-2.9-1.3-4.1-2.3c-1.2-1-2.1-2.1-2.9-3.5c-0.8-1.3-1.3-2.8-1.7-4.4
						s-0.6-3.2-0.7-5c-0.1-1.7,0-3.5,0.3-5.3l1.3-8.4c0.3-1.9,0.7-3.7,1.2-5.5c0.5-1.8,1.2-3.5,2-5.1c0.8-1.6,1.7-3.1,2.8-4.4
						c1.1-1.3,2.3-2.5,3.7-3.5c1.4-1,3-1.7,4.7-2.2c1.7-0.5,3.7-0.7,5.8-0.7c2.6,0,4.8,0.5,6.6,1.3c1.8,0.8,3.3,2,4.4,3.4
						c1.1,1.5,2,3.2,2.5,5.2c0.5,2,0.8,4.2,0.8,6.7l-9.5,0c0-1,0-2.1-0.1-3c-0.1-1-0.3-1.8-0.7-2.6c-0.4-0.8-0.9-1.4-1.6-1.8
						c-0.7-0.5-1.7-0.7-2.9-0.8c-1.8-0.1-3.3,0.3-4.5,1.1c-1.2,0.8-2.1,1.8-2.9,3.1c-0.7,1.3-1.3,2.7-1.7,4.3
						c-0.4,1.6-0.7,3.1-0.9,4.5l-1.2,8.5c-0.1,0.8-0.2,1.7-0.3,2.7c-0.1,1-0.1,1.9-0.1,2.9c0,0.9,0.2,1.9,0.4,2.7
						c0.2,0.9,0.5,1.7,1,2.3c0.5,0.7,1.1,1.2,1.9,1.6c0.8,0.4,1.7,0.6,2.9,0.6c1.1,0,2.2-0.1,3.1-0.5c0.9-0.3,1.9-0.8,2.8-1.3
						l1.7-9.2h-6.9l1.3-7.6h16.6L521.6,140z"/>
					<path class="st4" d="M561.2,145.7h-9.6l-8.7-33l-5.7,33h-9.8l8.6-49.8h9.6l8.7,33l5.7-33h9.8L561.2,145.7z"/>
					<path class="st4" d="M610.2,135.5H597l-4.3,10.2H582l23.7-49.8h9l6.5,49.8h-10.2L610.2,135.5z M600.6,127.1h9l-1.4-17.6
						L600.6,127.1z"/>
					<path class="st4" d="M644.2,127.5h-5l-3.1,18.2h-9.8l8.6-49.8l15,0c2.2,0.1,4.2,0.5,5.9,1.2c1.7,0.7,3.2,1.7,4.3,3
						s2,2.8,2.5,4.6c0.5,1.8,0.7,3.8,0.5,6c-0.3,3.2-1.2,6-2.6,8.5c-1.5,2.4-3.7,4.4-6.6,5.7l5,20.2v0.5h-10.5L644.2,127.5z
						 M640.6,119.1l5.2,0.1c1.1,0,2.1-0.2,3-0.6c0.9-0.4,1.6-1,2.2-1.7c0.6-0.7,1.1-1.5,1.5-2.4c0.4-0.9,0.6-1.9,0.8-3
						c0.1-0.8,0.2-1.6,0.2-2.4c0-0.8-0.1-1.6-0.4-2.3c-0.3-0.7-0.7-1.3-1.2-1.7c-0.5-0.5-1.3-0.7-2.3-0.8l-6.3,0L640.6,119.1z"/>
					<path class="st4" d="M700.9,104.3H689l-7.2,41.4H672l7.2-41.4h-11.8l1.5-8.4h33.5L700.9,104.3z"/>
					<path class="st4" d="M713.6,145.7l8.6-49.8l12.3,0c3,0.1,5.5,0.7,7.6,1.9c2.1,1.2,3.8,2.7,5.1,4.6c1.3,1.9,2.1,4.1,2.6,6.6
						c0.4,2.5,0.5,5.1,0.2,7.9l-1.2,7.7c-0.5,3-1.3,5.7-2.4,8.3c-1.2,2.6-2.6,4.8-4.5,6.7c-1.8,1.9-4,3.4-6.5,4.4
						c-2.5,1.1-5.4,1.6-8.5,1.6H713.6z M730.6,104.3l-5.7,33.1l2.4,0.1c2,0,3.7-0.3,5.1-1c1.4-0.6,2.5-1.5,3.4-2.7
						c0.9-1.2,1.6-2.5,2.1-4.1c0.5-1.5,0.9-3.2,1.1-5l1.1-7.8c0.1-1,0.2-1.9,0.3-2.9c0.1-1,0.1-1.9,0.1-2.8c0-0.9-0.2-1.8-0.4-2.6
						c-0.2-0.8-0.6-1.5-1.1-2.1c-0.5-0.6-1.1-1.1-1.9-1.5c-0.8-0.4-1.8-0.6-3-0.6L730.6,104.3z"/>
					<path class="st4" d="M762.5,145.7h-9.8l8.6-49.8h9.8L762.5,145.7z"/>
				</g>
				<g class="st7">
					<path class="st4" d="M215.2,68H202l-4.3,10.2H187l23.7-49.8h9l6.5,49.8h-10.2L215.2,68z M205.6,59.6h9L213.1,42L205.6,59.6z"/>
					<path class="st4" d="M265,78.2h-9.6l-8.7-33l-5.7,33h-9.8l8.6-49.8h9.6l8.7,33l5.7-33h9.8L265,78.2z"/>
					<path class="st4" d="M283.3,78.2h-9.8l8.6-49.8h9.8L283.3,78.2z"/>
					<path class="st4" d="M313,28.4l2.9,35.8l15.3-35.8h12.9l-8.6,49.8h-9.8l2.4-13.8l4.3-19.7l-15.2,33.4h-6.7l-3.8-34.6L303.8,65
						l-2.3,13.1h-9.8l8.6-49.8H313z"/>
					<path class="st4" d="M369.1,68h-13.2l-4.3,10.2h-10.7l23.7-49.8h9l6.5,49.8H370L369.1,68z M359.5,59.6h9L367,42L359.5,59.6z"/>
					<path class="st4" d="M419.5,36.8h-11.9l-7.2,41.4h-9.8l7.2-41.4h-11.8l1.5-8.4h33.5L419.5,36.8z"/>
					<path class="st4" d="M428.4,78.2h-9.8l8.6-49.8h9.8L428.4,78.2z"/>
					<path class="st4" d="M474.6,57.7c-0.3,1.8-0.7,3.7-1.2,5.5c-0.5,1.8-1.2,3.5-2.1,5s-1.8,3-2.9,4.3c-1.1,1.3-2.4,2.5-3.8,3.4
						c-1.4,0.9-3,1.7-4.8,2.2c-1.7,0.5-3.7,0.7-5.7,0.7c-2,0-3.7-0.4-5.3-0.9c-1.5-0.6-2.9-1.3-4-2.3c-1.2-1-2.1-2.1-2.9-3.5
						c-0.8-1.3-1.3-2.8-1.7-4.3c-0.4-1.5-0.6-3.2-0.7-4.9c-0.1-1.7,0-3.4,0.2-5.2l1.3-8.3c0.3-1.9,0.7-3.7,1.2-5.5s1.2-3.5,2.1-5.2
						c0.8-1.6,1.8-3.1,2.9-4.5c1.1-1.4,2.4-2.6,3.8-3.6s3-1.8,4.8-2.3c1.8-0.5,3.7-0.8,5.8-0.7c2,0,3.8,0.4,5.3,1
						c1.5,0.6,2.9,1.4,4,2.5c1.1,1,2.1,2.3,2.8,3.6c0.7,1.4,1.3,2.9,1.7,4.5c0.4,1.6,0.6,3.3,0.7,5c0.1,1.7,0,3.5-0.3,5.2
						L474.6,57.7z M466,49.3c0.1-0.8,0.2-1.6,0.3-2.6c0.1-0.9,0.1-1.9,0.1-2.9c0-1-0.1-1.9-0.3-2.8c-0.2-0.9-0.4-1.7-0.9-2.5
						c-0.4-0.7-1-1.3-1.7-1.8c-0.7-0.5-1.6-0.7-2.7-0.8c-1.2,0-2.3,0.1-3.2,0.5c-0.9,0.4-1.8,0.9-2.5,1.6c-0.7,0.7-1.3,1.5-1.8,2.4
						c-0.5,0.9-0.9,1.9-1.3,2.9c-0.4,1-0.6,2-0.9,3.1c-0.2,1-0.4,2.1-0.5,3l-1.2,8.4c-0.1,0.8-0.2,1.6-0.3,2.5s-0.1,1.8-0.1,2.8
						c0,0.9,0.1,1.8,0.3,2.7c0.2,0.9,0.5,1.7,0.9,2.3c0.4,0.7,1,1.2,1.7,1.7c0.7,0.4,1.6,0.7,2.7,0.7c1.8,0.1,3.2-0.3,4.4-1.1
						s2.1-1.8,2.9-3.1s1.3-2.7,1.7-4.2c0.4-1.5,0.7-3,0.9-4.4L466,49.3z"/>
					<path class="st4" d="M512,78.2h-9.6l-8.7-33l-5.7,33h-9.8l8.6-49.8h9.6l8.7,33l5.7-33h9.8L512,78.2z"/>
					<path class="st4" d="M564.8,56.6h-15.2l-2.3,13.2h18l-1.5,8.3h-27.8l8.6-49.8h27.7l-1.5,8.4h-17.9l-2.1,11.8h15.2L564.8,56.6z"
						/>
					<path class="st4" d="M569.8,78.2l8.6-49.8l12.3,0c3,0.1,5.5,0.7,7.6,1.9c2.1,1.2,3.8,2.7,5.1,4.6c1.3,1.9,2.1,4.1,2.6,6.6
						c0.4,2.5,0.5,5.1,0.2,7.9l-1.2,7.7c-0.5,3-1.3,5.7-2.4,8.3c-1.2,2.6-2.6,4.8-4.5,6.7c-1.8,1.9-4,3.4-6.5,4.4
						c-2.5,1.1-5.4,1.6-8.5,1.6H569.8z M586.8,36.8L581,69.8l2.4,0.1c2,0,3.7-0.3,5.1-1c1.4-0.6,2.5-1.5,3.4-2.7
						c0.9-1.2,1.6-2.5,2.1-4.1c0.5-1.5,0.9-3.2,1.1-5l1.1-7.8c0.1-1,0.2-1.9,0.3-2.9c0.1-1,0.1-1.9,0.1-2.8c0-0.9-0.2-1.8-0.4-2.6
						c-0.2-0.8-0.6-1.5-1.1-2.1c-0.5-0.6-1.1-1.1-1.9-1.5c-0.8-0.4-1.8-0.6-3-0.6L586.8,36.8z"/>
					<path class="st4" d="M618.7,78.2h-9.8l8.6-49.8h9.8L618.7,78.2z"/>
					<path class="st4" d="M664.7,36.8h-11.9l-7.2,41.4h-9.8l7.2-41.4h-11.8l1.5-8.4h33.5L664.7,36.8z"/>
					<path class="st4" d="M673.6,78.2h-9.8l8.6-49.8h9.8L673.6,78.2z"/>
					<path class="st4" d="M715.9,78.2h-9.6l-8.7-33l-5.7,33h-9.8l8.6-49.8h9.6l8.7,33l5.7-33h9.8L715.9,78.2z"/>
					<path class="st4" d="M758.2,72.5c-1,1.1-2.2,2.1-3.5,2.9c-1.3,0.8-2.7,1.5-4.2,2c-1.5,0.5-3,0.9-4.5,1.1
						c-1.5,0.2-3.1,0.3-4.5,0.3c-2.1,0-3.9-0.3-5.4-0.9s-2.9-1.3-4.1-2.3c-1.2-1-2.1-2.1-2.9-3.5c-0.8-1.3-1.3-2.8-1.7-4.4
						s-0.6-3.2-0.7-5c-0.1-1.7,0-3.5,0.3-5.3l1.3-8.4c0.3-1.9,0.7-3.7,1.2-5.5c0.5-1.8,1.2-3.5,2-5.1c0.8-1.6,1.7-3.1,2.8-4.4
						c1.1-1.3,2.3-2.5,3.7-3.5c1.4-1,3-1.7,4.7-2.2c1.7-0.5,3.7-0.7,5.8-0.7c2.6,0,4.8,0.5,6.6,1.3c1.8,0.8,3.3,2,4.4,3.4
						c1.1,1.5,2,3.2,2.5,5.2c0.5,2,0.8,4.2,0.8,6.7l-9.5,0c0-1,0-2.1-0.1-3c-0.1-1-0.3-1.8-0.7-2.6c-0.4-0.8-0.9-1.4-1.6-1.8
						c-0.7-0.5-1.7-0.7-2.9-0.8c-1.8-0.1-3.3,0.3-4.5,1.1c-1.2,0.8-2.1,1.8-2.9,3.1c-0.7,1.3-1.3,2.7-1.7,4.3
						c-0.4,1.6-0.7,3.1-0.9,4.5l-1.2,8.5c-0.1,0.8-0.2,1.7-0.3,2.7c-0.1,1-0.1,1.9-0.1,2.9c0,0.9,0.2,1.9,0.4,2.7
						c0.2,0.9,0.5,1.7,1,2.3c0.5,0.7,1.1,1.2,1.9,1.6c0.8,0.4,1.7,0.6,2.9,0.6c1.1,0,2.2-0.1,3.1-0.5c0.9-0.3,1.9-0.8,2.8-1.3
						l1.7-9.2h-6.9l1.3-7.6h16.6L758.2,72.5z"/>
				</g>
				<g class="st6">
					<path class="st4" d="M209.3,259.1h-15.2l-2.3,13.2h18l-1.5,8.3h-27.8l8.6-49.8H217l-1.5,8.4h-17.9l-2.1,11.8h15.2L209.3,259.1z
						"/>
					<path class="st4" d="M214.3,280.7l8.6-49.8l12.3,0c3,0.1,5.5,0.7,7.6,1.9c2.1,1.2,3.8,2.7,5.1,4.6c1.3,1.9,2.1,4.1,2.6,6.6
						c0.4,2.5,0.5,5.1,0.2,7.9l-1.2,7.7c-0.5,3-1.3,5.7-2.4,8.3c-1.2,2.6-2.6,4.8-4.5,6.7c-1.8,1.9-4,3.4-6.5,4.4
						c-2.5,1.1-5.4,1.6-8.5,1.6H214.3z M231.3,239.3l-5.7,33.1l2.4,0.1c2,0,3.7-0.3,5.1-1c1.4-0.6,2.5-1.5,3.4-2.7
						c0.9-1.2,1.6-2.5,2.1-4.1c0.5-1.5,0.9-3.2,1.1-5l1.1-7.8c0.1-1,0.2-1.9,0.3-2.9c0.1-1,0.1-1.9,0.1-2.8c0-0.9-0.2-1.8-0.4-2.6
						c-0.2-0.8-0.6-1.5-1.1-2.1c-0.5-0.6-1.1-1.1-1.9-1.5c-0.8-0.4-1.8-0.6-3-0.6L231.3,239.3z"/>
					<path class="st4" d="M263.2,280.7h-9.8l8.6-49.8h9.8L263.2,280.7z"/>
					<path class="st4" d="M309.2,239.3h-11.9l-7.2,41.4h-9.8l7.2-41.4h-11.8l1.5-8.4h33.5L309.2,239.3z"/>
					<path class="st4" d="M318.1,280.7h-9.8l8.6-49.8h9.8L318.1,280.7z"/>
					<path class="st4" d="M360.4,280.7h-9.6l-8.7-33l-5.7,33h-9.8l8.6-49.8h9.6l8.7,33l5.7-33h9.8L360.4,280.7z"/>
					<path class="st4" d="M402.7,275c-1,1.1-2.2,2.1-3.5,2.9c-1.3,0.8-2.7,1.5-4.2,2c-1.5,0.5-3,0.9-4.5,1.1
						c-1.5,0.2-3.1,0.3-4.5,0.3c-2.1,0-3.9-0.3-5.4-0.9s-2.9-1.3-4.1-2.3c-1.2-1-2.1-2.1-2.9-3.5c-0.8-1.3-1.3-2.8-1.7-4.4
						s-0.6-3.2-0.7-5c-0.1-1.7,0-3.5,0.3-5.3l1.3-8.4c0.3-1.9,0.7-3.7,1.2-5.5c0.5-1.8,1.2-3.5,2-5.1c0.8-1.6,1.7-3.1,2.8-4.4
						c1.1-1.3,2.3-2.5,3.7-3.5c1.4-1,3-1.7,4.7-2.2c1.7-0.5,3.7-0.7,5.8-0.7c2.6,0,4.8,0.5,6.6,1.3c1.8,0.8,3.3,2,4.4,3.4
						c1.1,1.5,2,3.2,2.5,5.2c0.5,2,0.8,4.2,0.8,6.7l-9.5,0c0-1,0-2.1-0.1-3c-0.1-1-0.3-1.8-0.7-2.6c-0.4-0.8-0.9-1.4-1.6-1.8
						c-0.7-0.5-1.7-0.7-2.9-0.8c-1.8-0.1-3.3,0.3-4.5,1.1c-1.2,0.8-2.1,1.8-2.9,3.1c-0.7,1.3-1.3,2.7-1.7,4.3
						c-0.4,1.6-0.7,3.1-0.9,4.5l-1.2,8.5c-0.1,0.8-0.2,1.7-0.3,2.7c-0.1,1-0.1,1.9-0.1,2.9c0,0.9,0.2,1.9,0.4,2.7
						c0.2,0.9,0.5,1.7,1,2.3c0.5,0.7,1.1,1.2,1.9,1.6c0.8,0.4,1.7,0.6,2.9,0.6c1.1,0,2.2-0.1,3.1-0.5c0.9-0.3,1.9-0.8,2.8-1.3
						l1.7-9.2h-6.9l1.3-7.6h16.6L402.7,275z"/>
					<path class="st4" d="M459.9,264c-0.3,2.6-0.9,5-1.9,7.1c-1,2.1-2.3,4-3.8,5.5c-1.6,1.5-3.5,2.7-5.7,3.5
						c-2.2,0.8-4.6,1.2-7.3,1.1c-2,0-3.8-0.4-5.3-0.9c-1.5-0.6-2.8-1.4-3.9-2.4c-1.1-1-2-2.2-2.7-3.5c-0.7-1.4-1.2-2.8-1.6-4.4
						c-0.4-1.6-0.6-3.2-0.6-4.9c0-1.7,0-3.4,0.3-5.2l1.3-8.5c0.4-2.8,1.1-5.4,2.1-8c1-2.6,2.3-4.9,3.9-6.9c1.6-2,3.6-3.6,6-4.8
						c2.3-1.2,5.1-1.7,8.2-1.7c2.7,0,4.9,0.5,6.7,1.5c1.8,0.9,3.3,2.2,4.4,3.8c1.1,1.6,2,3.4,2.5,5.6c0.5,2.1,0.8,4.4,0.8,6.8
						l-9.9,0c0.1-1.2,0.1-2.3,0.1-3.4c0-1.1-0.2-2.1-0.5-2.9c-0.3-0.9-0.9-1.6-1.6-2.1c-0.8-0.5-1.8-0.8-3.2-0.9
						c-1.2,0-2.3,0.1-3.2,0.5c-0.9,0.4-1.7,0.9-2.4,1.5s-1.2,1.4-1.7,2.3c-0.5,0.9-0.8,1.8-1.1,2.8c-0.3,1-0.6,2-0.8,3
						c-0.2,1-0.3,2-0.5,3l-1.2,8.6c-0.1,0.8-0.2,1.6-0.3,2.6c-0.1,0.9-0.2,1.9-0.2,2.8c0,0.9,0,1.9,0.1,2.8s0.4,1.7,0.8,2.4
						c0.4,0.7,0.9,1.3,1.6,1.7c0.7,0.4,1.6,0.7,2.7,0.7c1.5,0.1,2.7-0.1,3.7-0.6c1-0.5,1.8-1.1,2.4-1.9c0.6-0.8,1.1-1.8,1.5-2.9
						c0.4-1.1,0.6-2.3,0.8-3.6L459.9,264z"/>
					<path class="st4" d="M501.3,260.2c-0.3,1.8-0.7,3.7-1.2,5.5c-0.5,1.8-1.2,3.5-2.1,5s-1.8,3-2.9,4.3c-1.1,1.3-2.4,2.5-3.8,3.4
						c-1.4,0.9-3,1.7-4.8,2.2c-1.7,0.5-3.7,0.7-5.7,0.7c-2,0-3.7-0.4-5.3-0.9c-1.5-0.6-2.9-1.3-4-2.3c-1.2-1-2.1-2.1-2.9-3.5
						c-0.8-1.3-1.3-2.8-1.7-4.3c-0.4-1.5-0.6-3.2-0.7-4.9c-0.1-1.7,0-3.4,0.2-5.2l1.3-8.3c0.3-1.9,0.7-3.7,1.2-5.5s1.2-3.5,2.1-5.2
						c0.8-1.6,1.8-3.1,2.9-4.5c1.1-1.4,2.4-2.6,3.8-3.6s3-1.8,4.8-2.3c1.8-0.5,3.7-0.8,5.8-0.7c2,0,3.8,0.4,5.3,1
						c1.5,0.6,2.9,1.4,4,2.5c1.1,1,2.1,2.3,2.8,3.6c0.7,1.4,1.3,2.9,1.7,4.5c0.4,1.6,0.6,3.3,0.7,5c0.1,1.7,0,3.5-0.3,5.2
						L501.3,260.2z M492.7,251.8c0.1-0.8,0.2-1.6,0.3-2.6c0.1-0.9,0.1-1.9,0.1-2.9c0-1-0.1-1.9-0.3-2.8c-0.2-0.9-0.4-1.7-0.9-2.5
						c-0.4-0.7-1-1.3-1.7-1.8c-0.7-0.5-1.6-0.7-2.7-0.8c-1.2,0-2.3,0.1-3.2,0.5c-0.9,0.4-1.8,0.9-2.5,1.6c-0.7,0.7-1.3,1.5-1.8,2.4
						c-0.5,0.9-0.9,1.9-1.3,2.9c-0.4,1-0.6,2-0.9,3.1c-0.2,1-0.4,2.1-0.5,3l-1.2,8.4c-0.1,0.8-0.2,1.6-0.3,2.5s-0.1,1.8-0.1,2.8
						c0,0.9,0.1,1.8,0.3,2.7c0.2,0.9,0.5,1.7,0.9,2.3c0.4,0.7,1,1.2,1.7,1.7c0.7,0.4,1.6,0.7,2.7,0.7c1.8,0.1,3.2-0.3,4.4-1.1
						s2.1-1.8,2.9-3.1s1.3-2.7,1.7-4.2c0.4-1.5,0.7-3,0.9-4.4L492.7,251.8z"/>
					<path class="st4" d="M505,280.7l8.6-49.8l12.3,0c3,0.1,5.5,0.7,7.6,1.9c2.1,1.2,3.8,2.7,5.1,4.6c1.3,1.9,2.1,4.1,2.6,6.6
						c0.4,2.5,0.5,5.1,0.2,7.9l-1.2,7.7c-0.5,3-1.3,5.7-2.4,8.3c-1.2,2.6-2.6,4.8-4.5,6.7c-1.8,1.9-4,3.4-6.5,4.4
						c-2.5,1.1-5.4,1.6-8.5,1.6H505z M521.9,239.3l-5.7,33.1l2.4,0.1c2,0,3.7-0.3,5.1-1c1.4-0.6,2.5-1.5,3.4-2.7
						c0.9-1.2,1.6-2.5,2.1-4.1c0.5-1.5,0.9-3.2,1.1-5l1.1-7.8c0.1-1,0.2-1.9,0.3-2.9c0.1-1,0.1-1.9,0.1-2.8c0-0.9-0.2-1.8-0.4-2.6
						c-0.2-0.8-0.6-1.5-1.1-2.1c-0.5-0.6-1.1-1.1-1.9-1.5c-0.8-0.4-1.8-0.6-3-0.6L521.9,239.3z"/>
					<path class="st4" d="M553.9,280.7h-9.8l8.6-49.8h9.8L553.9,280.7z"/>
					<path class="st4" d="M596.1,280.7h-9.6l-8.7-33l-5.7,33h-9.8l8.6-49.8h9.6l8.7,33l5.7-33h9.8L596.1,280.7z"/>
					<path class="st4" d="M638.5,275c-1,1.1-2.2,2.1-3.5,2.9c-1.3,0.8-2.7,1.5-4.2,2c-1.5,0.5-3,0.9-4.5,1.1
						c-1.5,0.2-3.1,0.3-4.5,0.3c-2.1,0-3.9-0.3-5.4-0.9s-2.9-1.3-4.1-2.3c-1.2-1-2.1-2.1-2.9-3.5c-0.8-1.3-1.3-2.8-1.7-4.4
						s-0.6-3.2-0.7-5c-0.1-1.7,0-3.5,0.3-5.3l1.3-8.4c0.3-1.9,0.7-3.7,1.2-5.5c0.5-1.8,1.2-3.5,2-5.1c0.8-1.6,1.7-3.1,2.8-4.4
						c1.1-1.3,2.3-2.5,3.7-3.5c1.4-1,3-1.7,4.7-2.2c1.7-0.5,3.7-0.7,5.8-0.7c2.6,0,4.8,0.5,6.6,1.3c1.8,0.8,3.3,2,4.4,3.4
						c1.1,1.5,2,3.2,2.5,5.2c0.5,2,0.8,4.2,0.8,6.7l-9.5,0c0-1,0-2.1-0.1-3c-0.1-1-0.3-1.8-0.7-2.6c-0.4-0.8-0.9-1.4-1.6-1.8
						c-0.7-0.5-1.7-0.7-2.9-0.8c-1.8-0.1-3.3,0.3-4.5,1.1c-1.2,0.8-2.1,1.8-2.9,3.1c-0.7,1.3-1.3,2.7-1.7,4.3
						c-0.4,1.6-0.7,3.1-0.9,4.5l-1.2,8.5c-0.1,0.8-0.2,1.7-0.3,2.7c-0.1,1-0.1,1.9-0.1,2.9c0,0.9,0.2,1.9,0.4,2.7
						c0.2,0.9,0.5,1.7,1,2.3c0.5,0.7,1.1,1.2,1.9,1.6c0.8,0.4,1.7,0.6,2.9,0.6c1.1,0,2.2-0.1,3.1-0.5c0.9-0.3,1.9-0.8,2.8-1.3
						l1.7-9.2h-6.9l1.3-7.6h16.6L638.5,275z"/>
					<path class="st4" d="M685.2,270.5H672l-4.3,10.2H657l23.7-49.8h9l6.5,49.8h-10.2L685.2,270.5z M675.6,262.1h9l-1.4-17.6
						L675.6,262.1z"/>
					<path class="st4" d="M735,280.7h-9.6l-8.7-33l-5.7,33h-9.8l8.6-49.8h9.6l8.7,33l5.7-33h9.8L735,280.7z"/>
					<path class="st4" d="M753.3,280.7h-9.8l8.6-49.8h9.8L753.3,280.7z"/>
				</g>
				<g class="st7">
					<path class="st4" d="M214.4,306.8h-11.9l-7.2,41.4h-9.8l7.2-41.4h-11.8l1.5-8.4h33.5L214.4,306.8z"/>
					<path class="st4" d="M227.1,348.2l8.6-49.8l12.3,0c3,0.1,5.5,0.7,7.6,1.9c2.1,1.2,3.8,2.7,5.1,4.6c1.3,1.9,2.1,4.1,2.6,6.6
						c0.4,2.5,0.5,5.1,0.2,7.9l-1.2,7.7c-0.5,3-1.3,5.7-2.4,8.3c-1.2,2.6-2.6,4.8-4.5,6.7c-1.8,1.9-4,3.4-6.5,4.4
						c-2.5,1.1-5.4,1.6-8.5,1.6H227.1z M244.1,306.8l-5.7,33.1l2.4,0.1c2,0,3.7-0.3,5.1-1c1.4-0.6,2.5-1.5,3.4-2.7
						c0.9-1.2,1.6-2.5,2.1-4.1c0.5-1.5,0.9-3.2,1.1-5l1.1-7.8c0.1-1,0.2-1.9,0.3-2.9c0.1-1,0.1-1.9,0.1-2.8c0-0.9-0.2-1.8-0.4-2.6
						c-0.2-0.8-0.6-1.5-1.1-2.1c-0.5-0.6-1.1-1.1-1.9-1.5c-0.8-0.4-1.8-0.6-3-0.6L244.1,306.8z"/>
					<path class="st4" d="M276,348.2h-9.8l8.6-49.8h9.8L276,348.2z"/>
					<path class="st4" d="M302.4,330h-5l-3.1,18.2h-9.8l8.6-49.8l15,0c2.2,0.1,4.2,0.5,5.9,1.2c1.7,0.7,3.2,1.7,4.3,3s2,2.8,2.5,4.6
						c0.5,1.8,0.7,3.8,0.5,6c-0.3,3.2-1.2,6-2.6,8.5c-1.5,2.4-3.7,4.4-6.6,5.7l5,20.2v0.5h-10.5L302.4,330z M298.9,321.6l5.2,0.1
						c1.1,0,2.1-0.2,3-0.6c0.9-0.4,1.6-1,2.2-1.7c0.6-0.7,1.1-1.5,1.5-2.4c0.4-0.9,0.6-1.9,0.8-3c0.1-0.8,0.2-1.6,0.2-2.4
						c0-0.8-0.1-1.6-0.4-2.3c-0.3-0.7-0.7-1.3-1.2-1.7c-0.5-0.5-1.3-0.7-2.3-0.8l-6.3,0L298.9,321.6z"/>
					<path class="st4" d="M351.1,326.6h-15.2l-2.3,13.2h18l-1.5,8.3h-27.8l8.6-49.8h27.7l-1.5,8.4h-17.9l-2.1,11.8h15.2L351.1,326.6
						z"/>
					<path class="st4" d="M391.4,331.5c-0.3,2.6-0.9,5-1.9,7.1c-1,2.1-2.3,4-3.8,5.5c-1.6,1.5-3.5,2.7-5.7,3.5
						c-2.2,0.8-4.6,1.2-7.3,1.1c-2,0-3.8-0.4-5.3-0.9c-1.5-0.6-2.8-1.4-3.9-2.4c-1.1-1-2-2.2-2.7-3.5c-0.7-1.4-1.2-2.8-1.6-4.4
						c-0.4-1.6-0.6-3.2-0.6-4.9c0-1.7,0-3.4,0.3-5.2l1.3-8.5c0.4-2.8,1.1-5.4,2.1-8c1-2.6,2.3-4.9,3.9-6.9c1.6-2,3.6-3.6,6-4.8
						c2.3-1.2,5.1-1.7,8.2-1.7c2.7,0,4.9,0.5,6.7,1.5c1.8,0.9,3.3,2.2,4.4,3.8c1.1,1.6,2,3.4,2.5,5.6c0.5,2.1,0.8,4.4,0.8,6.8
						l-9.9,0c0.1-1.2,0.1-2.3,0.1-3.4c0-1.1-0.2-2.1-0.5-2.9c-0.3-0.9-0.9-1.6-1.6-2.1c-0.8-0.5-1.8-0.8-3.2-0.9
						c-1.2,0-2.3,0.1-3.2,0.5c-0.9,0.4-1.7,0.9-2.4,1.5s-1.2,1.4-1.7,2.3c-0.5,0.9-0.8,1.8-1.1,2.8c-0.3,1-0.6,2-0.8,3
						c-0.2,1-0.3,2-0.5,3l-1.2,8.6c-0.1,0.8-0.2,1.6-0.3,2.6c-0.1,0.9-0.2,1.9-0.2,2.8c0,0.9,0,1.9,0.1,2.8s0.4,1.7,0.8,2.4
						c0.4,0.7,0.9,1.3,1.6,1.7c0.7,0.4,1.6,0.7,2.7,0.7c1.5,0.1,2.7-0.1,3.7-0.6c1-0.5,1.8-1.1,2.4-1.9c0.6-0.8,1.1-1.8,1.5-2.9
						c0.4-1.1,0.6-2.3,0.8-3.6L391.4,331.5z"/>
					<path class="st4" d="M432.6,306.8h-11.9l-7.2,41.4h-9.8l7.2-41.4h-11.8l1.5-8.4h33.5L432.6,306.8z"/>
					<path class="st4" d="M441.6,348.2h-9.8l8.6-49.8h9.8L441.6,348.2z"/>
					<path class="st4" d="M487.7,327.7c-0.3,1.8-0.7,3.7-1.2,5.5c-0.5,1.8-1.2,3.5-2.1,5s-1.8,3-2.9,4.3c-1.1,1.3-2.4,2.5-3.8,3.4
						c-1.4,0.9-3,1.7-4.8,2.2c-1.7,0.5-3.7,0.7-5.7,0.7c-2,0-3.7-0.4-5.3-0.9c-1.5-0.6-2.9-1.3-4-2.3c-1.2-1-2.1-2.1-2.9-3.5
						c-0.8-1.3-1.3-2.8-1.7-4.3c-0.4-1.5-0.6-3.2-0.7-4.9c-0.1-1.7,0-3.4,0.2-5.2l1.3-8.3c0.3-1.9,0.7-3.7,1.2-5.5s1.2-3.5,2.1-5.2
						c0.8-1.6,1.8-3.1,2.9-4.5c1.1-1.4,2.4-2.6,3.8-3.6s3-1.8,4.8-2.3c1.8-0.5,3.7-0.8,5.8-0.7c2,0,3.8,0.4,5.3,1
						c1.5,0.6,2.9,1.4,4,2.5c1.1,1,2.1,2.3,2.8,3.6c0.7,1.4,1.3,2.9,1.7,4.5c0.4,1.6,0.6,3.3,0.7,5c0.1,1.7,0,3.5-0.3,5.2
						L487.7,327.7z M479.1,319.3c0.1-0.8,0.2-1.6,0.3-2.6c0.1-0.9,0.1-1.9,0.1-2.9c0-1-0.1-1.9-0.3-2.8c-0.2-0.9-0.4-1.7-0.9-2.5
						c-0.4-0.7-1-1.3-1.7-1.8c-0.7-0.5-1.6-0.7-2.7-0.8c-1.2,0-2.3,0.1-3.2,0.5c-0.9,0.4-1.8,0.9-2.5,1.6c-0.7,0.7-1.3,1.5-1.8,2.4
						c-0.5,0.9-0.9,1.9-1.3,2.9c-0.4,1-0.6,2-0.9,3.1c-0.2,1-0.4,2.1-0.5,3l-1.2,8.4c-0.1,0.8-0.2,1.6-0.3,2.5s-0.1,1.8-0.1,2.8
						c0,0.9,0.1,1.8,0.3,2.7c0.2,0.9,0.5,1.7,0.9,2.3c0.4,0.7,1,1.2,1.7,1.7c0.7,0.4,1.6,0.7,2.7,0.7c1.8,0.1,3.2-0.3,4.4-1.1
						s2.1-1.8,2.9-3.1s1.3-2.7,1.7-4.2c0.4-1.5,0.7-3,0.9-4.4L479.1,319.3z"/>
					<path class="st4" d="M525.2,348.2h-9.6l-8.7-33l-5.7,33h-9.8l8.6-49.8h9.6l8.7,33l5.7-33h9.8L525.2,348.2z"/>
					<path class="st4" d="M549.3,348.2l8.6-49.8l12.3,0c3,0.1,5.5,0.7,7.6,1.9c2.1,1.2,3.8,2.7,5.1,4.6c1.3,1.9,2.1,4.1,2.6,6.6
						c0.4,2.5,0.5,5.1,0.2,7.9l-1.2,7.7c-0.5,3-1.3,5.7-2.4,8.3c-1.2,2.6-2.6,4.8-4.5,6.7c-1.8,1.9-4,3.4-6.5,4.4
						c-2.5,1.1-5.4,1.6-8.5,1.6H549.3z M566.3,306.8l-5.7,33.1l2.4,0.1c2,0,3.7-0.3,5.1-1c1.4-0.6,2.5-1.5,3.4-2.7
						c0.9-1.2,1.6-2.5,2.1-4.1c0.5-1.5,0.9-3.2,1.1-5l1.1-7.8c0.1-1,0.2-1.9,0.3-2.9c0.1-1,0.1-1.9,0.1-2.8c0-0.9-0.2-1.8-0.4-2.6
						c-0.2-0.8-0.6-1.5-1.1-2.1c-0.5-0.6-1.1-1.1-1.9-1.5c-0.8-0.4-1.8-0.6-3-0.6L566.3,306.8z"/>
					<path class="st4" d="M616.7,326.6h-15.2l-2.3,13.2h18l-1.5,8.3H588l8.6-49.8h27.7l-1.5,8.4H605l-2.1,11.8h15.2L616.7,326.6z"/>
					<path class="st4" d="M644.5,334.9c0.1-1,0.1-1.9-0.1-2.7c-0.2-0.8-0.6-1.4-1.1-2c-0.5-0.6-1.1-1.1-1.8-1.6
						c-0.7-0.5-1.5-0.9-2.4-1.3c-1.6-0.8-3.2-1.6-4.6-2.6c-1.5-1-2.7-2.1-3.8-3.3c-1.1-1.2-1.9-2.6-2.5-4.2
						c-0.6-1.6-0.8-3.3-0.7-5.3c0.1-2.2,0.7-4.2,1.7-6c1-1.8,2.2-3.3,3.8-4.5c1.5-1.2,3.3-2.2,5.3-2.8c2-0.6,4-0.9,6.2-0.9
						c2.2,0,4.2,0.5,5.9,1.3c1.7,0.8,3.2,1.9,4.3,3.3c1.1,1.4,2,3,2.5,4.9c0.6,1.9,0.8,3.9,0.7,6l-9.8,0c0-0.8,0-1.7-0.1-2.5
						c-0.1-0.8-0.3-1.6-0.6-2.3c-0.3-0.7-0.8-1.2-1.4-1.7c-0.6-0.4-1.5-0.6-2.5-0.7c-0.9,0-1.7,0.1-2.4,0.4
						c-0.7,0.3-1.4,0.7-1.9,1.3s-1,1.2-1.3,1.9c-0.4,0.7-0.6,1.5-0.7,2.4c-0.1,0.9,0,1.7,0.3,2.4c0.3,0.7,0.8,1.3,1.3,1.9
						c0.6,0.6,1.2,1.1,1.9,1.5c0.7,0.4,1.4,0.8,2.2,1.1c1.8,0.8,3.4,1.7,4.8,2.7c1.5,1,2.7,2.1,3.7,3.4s1.8,2.7,2.3,4.3
						c0.5,1.6,0.7,3.5,0.5,5.6c-0.2,2.3-0.7,4.3-1.6,6c-0.9,1.8-2.1,3.2-3.6,4.4c-1.5,1.2-3.2,2.1-5.1,2.7c-1.9,0.6-4,0.9-6.2,0.9
						c-2.4,0-4.5-0.5-6.4-1.3c-1.9-0.8-3.5-2-4.8-3.5c-1.3-1.5-2.3-3.2-2.9-5.2c-0.6-2-0.9-4.2-0.8-6.5l9.8,0
						c-0.1,1.1,0,2.1,0.1,3.1c0.1,1,0.4,1.9,0.8,2.6s1,1.4,1.8,1.8c0.8,0.4,1.8,0.7,3.1,0.7c1.8,0,3.2-0.6,4.2-1.6
						C643.7,338,644.3,336.6,644.5,334.9z"/>
					<path class="st4" d="M668.9,348.2h-9.8l8.6-49.8h9.8L668.9,348.2z"/>
					<path class="st4" d="M711.6,342.5c-1,1.1-2.2,2.1-3.5,2.9c-1.3,0.8-2.7,1.5-4.2,2c-1.5,0.5-3,0.9-4.5,1.1
						c-1.5,0.2-3.1,0.3-4.5,0.3c-2.1,0-3.9-0.3-5.4-0.9s-2.9-1.3-4.1-2.3c-1.2-1-2.1-2.1-2.9-3.5c-0.8-1.3-1.3-2.8-1.7-4.4
						s-0.6-3.2-0.7-5c-0.1-1.7,0-3.5,0.3-5.3l1.3-8.4c0.3-1.9,0.7-3.7,1.2-5.5c0.5-1.8,1.2-3.5,2-5.1c0.8-1.6,1.7-3.1,2.8-4.4
						c1.1-1.3,2.3-2.5,3.7-3.5c1.4-1,3-1.7,4.7-2.2c1.7-0.5,3.7-0.7,5.8-0.7c2.6,0,4.8,0.5,6.6,1.3c1.8,0.8,3.3,2,4.4,3.4
						c1.1,1.5,2,3.2,2.5,5.2c0.5,2,0.8,4.2,0.8,6.7l-9.5,0c0-1,0-2.1-0.1-3c-0.1-1-0.3-1.8-0.7-2.6c-0.4-0.8-0.9-1.4-1.6-1.8
						c-0.7-0.5-1.7-0.7-2.9-0.8c-1.8-0.1-3.3,0.3-4.5,1.1c-1.2,0.8-2.1,1.8-2.9,3.1c-0.7,1.3-1.3,2.7-1.7,4.3
						c-0.4,1.6-0.7,3.1-0.9,4.5l-1.2,8.5c-0.1,0.8-0.2,1.7-0.3,2.7c-0.1,1-0.1,1.9-0.1,2.9c0,0.9,0.2,1.9,0.4,2.7
						c0.2,0.9,0.5,1.7,1,2.3c0.5,0.7,1.1,1.2,1.9,1.6c0.8,0.4,1.7,0.6,2.9,0.6c1.1,0,2.2-0.1,3.1-0.5c0.9-0.3,1.9-0.8,2.8-1.3
						l1.7-9.2h-6.9l1.3-7.6h16.6L711.6,342.5z"/>
					<path class="st4" d="M751.2,348.2h-9.6l-8.7-33l-5.7,33h-9.8l8.6-49.8h9.6l8.7,33l5.7-33h9.8L751.2,348.2z"/>
				</g>
			</g>
		</g>
	</g>
	<circle cx="464.3" cy="10.3" r="6.6"/>
	<path class="st0" d="M405.9,476c-2,0-3.7,1.3-4.2,3.3l-7.1,26.4c-0.6,2.3,0.8,4.8,3.1,5.4c0.4,0.1,0.8,0.2,1.1,0.2h135
		c2.4,0,4.4-2,4.4-4.4c0-0.5-0.1-1-0.2-1.4l-9.1-26.4c-0.6-1.8-2.3-3-4.2-3L405.9,476z"/>
	<polygon class="st0" points="766.1,366.9 766.1,372.8 162.2,372.8 162.6,372 162.6,366.9 	"/>
	<path class="st0" d="M691.5,380.3c-0.5,0-0.9,0.3-1,0.8l-1.7,6.4c-0.2,0.6,0.2,1.2,0.8,1.3c0.1,0,0.2,0,0.3,0h32.9
		c0.6,0,1.1-0.5,1.1-1.1c0-0.1,0-0.2-0.1-0.4l-2.2-6.4c-0.1-0.4-0.6-0.7-1-0.7L691.5,380.3z"/>
	<path class="st0" d="M643.5,380.3c-0.5,0-0.9,0.3-1,0.8l-1.7,6.4c-0.2,0.6,0.2,1.2,0.8,1.3c0.1,0,0.2,0,0.3,0h32.9
		c0.6,0,1.1-0.5,1.1-1.1c0-0.1,0-0.2-0.1-0.4l-2.2-6.4c-0.1-0.4-0.6-0.7-1-0.7L643.5,380.3z"/>
	<path class="st8" d="M504.5,421.1h2.6l-5.2-344.4h-2.6l0.1,6.9h-57.7l0.1-6.9h-2.6l-5.2,344.4h2.6l0.3-22.3h67.2L504.5,421.1z
		 M500.8,172.9h-60.4l0.6-42.1h59.2L500.8,172.9z M500.8,175.5l0.6,42.1h-61.8l0.6-42.1H500.8z M501.5,220.2l0.6,42.1H439l0.6-42.1
		H501.5z M502.1,264.8l0.6,42.1h-64.4l0.6-42.1H502.1z M502.8,309.5l0.6,42.1h-65.8l0.6-42.1H502.8z M499.5,86.2l0.6,42.1H441
		l0.6-42.1H499.5z M437,396.2l0.6-42.1h65.8l0.6,42.1H437z"/>
	<circle class="st9" cx="457.8" cy="153.4" r="42"/>
	
		<rect x="471.9" y="183.3" transform="matrix(0.984 -0.1781 0.1781 0.984 -27.0475 88.31)" class="st9" width="12.8" height="22.9"/>
	
		<rect x="446.8" y="187.9" transform="matrix(0.984 -0.1781 0.1781 0.984 -28.2593 83.9083)" class="st9" width="12.8" height="22.9"/>
	<ellipse transform="matrix(0.7631 -0.6463 0.6463 0.7631 -30.6078 343.3099)" class="st9" cx="453" cy="213.4" rx="10.6" ry="4"/>
	<ellipse transform="matrix(0.7631 -0.6463 0.6463 0.7631 -21.9039 358.1501)" class="st9" cx="477.6" cy="209" rx="10.6" ry="4"/>
	<circle class="st10" cx="454.9" cy="143.1" r="14.4"/>
	<circle class="st9" cx="449" cy="137.9" r="4.8"/>
	<path class="st11" d="M490.9,107.7c0.6-15.6-12.8-28.7-29.9-29.4s-31.6,11.3-32.2,26.9s11.3,19.1,28.5,19.8
		S490.3,123.2,490.9,107.7z"/>
	<ellipse transform="matrix(0.2234 -0.9747 0.9747 0.2234 183.367 521.5605)" class="st9" cx="419" cy="145.7" rx="6.6" ry="21"/>
	
		<ellipse transform="matrix(0.2234 -0.9747 0.9747 0.2234 234.0425 612.5948)" class="st9" cx="501.5" cy="159.4" rx="6.6" ry="21"/>
	<path class="st10" d="M469.3,169.9c0.9,5.2-2.5,10.2-7.7,11.1s-10.2-2.5-11.1-7.7l0,0c-0.9-5.2,3.1-7,8.3-8
		S468.4,164.7,469.3,169.9z"/>
	
		<ellipse transform="matrix(0.357 -0.9341 0.9341 0.357 -75.4836 477.6066)" class="st9" cx="309.2" cy="293.6" rx="21.5" ry="6.8"/>
	
		<ellipse transform="matrix(0.1602 -0.9871 0.9871 0.1602 -95.7152 539.8118)" class="st9" cx="269.4" cy="326.2" rx="43.1" ry="43.1"/>
	<rect x="249.8" y="360" class="st9" width="13.1" height="23.4"/>
	<rect x="275.9" y="360" class="st9" width="13.1" height="23.4"/>
	<ellipse class="st9" cx="260.7" cy="383.7" rx="10.9" ry="4.1"/>
	<ellipse class="st9" cx="286.8" cy="383.1" rx="10.9" ry="4.1"/>
	<path class="st11" d="M227.6,286.1c-3.5-15.6,7.6-31.3,24.8-35.1s33.9,5.7,37.4,21.2s-7.9,21.3-25.1,25.2
		C247.6,301.2,231.1,301.7,227.6,286.1z"/>
	
		<ellipse transform="matrix(0.4285 -0.9035 0.9035 0.4285 -150.4141 374.5312)" class="st9" cx="220.9" cy="306.2" rx="6.8" ry="21.5"/>
	<circle class="st9" cx="82.9" cy="369.8" r="43.1"/>
	<rect x="63.3" y="403.6" class="st9" width="13.1" height="23.4"/>
	<rect x="89.4" y="403.6" class="st9" width="13.1" height="23.4"/>
	<ellipse class="st9" cx="74.2" cy="427.3" rx="10.9" ry="4.1"/>
	<ellipse class="st9" cx="100.3" cy="426.7" rx="10.9" ry="4.1"/>
	<circle class="st10" cx="84" cy="358.9" r="14.7"/>
	<circle class="st9" cx="84" cy="358.9" r="4.9"/>
	<path class="st1" d="M41.1,329.7c-3.5-15.6,7.6-31.3,24.8-35.1s33.9,5.7,37.4,21.2s-7.9,21.3-25.1,25.2S44.6,345.3,41.1,329.7z"/>
	<ellipse transform="matrix(0.357 -0.9341 0.9341 0.357 -129.9867 238.14)" class="st9" cx="108" cy="213.5" rx="21.5" ry="6.8"/>
	
		<ellipse transform="matrix(0.3162 -0.9487 0.9487 0.3162 -186.7676 232.8994)" class="st9" cx="68.2" cy="246" rx="43.1" ry="43.1"/>
	<rect x="48.6" y="279.8" class="st9" width="13.1" height="23.4"/>
	<rect x="74.7" y="279.8" class="st9" width="13.1" height="23.4"/>
	<ellipse class="st9" cx="59.5" cy="303.5" rx="10.9" ry="4.1"/>
	<ellipse class="st9" cx="85.6" cy="303" rx="10.9" ry="4.1"/>
	<circle class="st10" cx="69.3" cy="235.1" r="14.7"/>
	<circle class="st9" cx="69.3" cy="235.1" r="4.9"/>
	<path class="st11" d="M26.4,206c-3.5-15.6,7.6-31.3,24.8-35.1s33.9,5.7,37.4,21.2s-7.9,21.3-25.1,25.2S29.9,221.5,26.4,206z"/>
	
		<ellipse transform="matrix(0.4285 -0.9035 0.9035 0.4285 -192.9811 146.9446)" class="st9" cx="19.7" cy="226" rx="6.8" ry="21.5"/>
	<path class="st10" d="M47,261.5c0,4.2,10.9,12.5,22.9,12.5s23.3-11.9,23.3-16.1c0-4.2-11.3,0.8-23.3,0.8S47,257.3,47,261.5z"/>
	<path class="st11" d="M110.5,81.6c-1.7,0-3,1.3-3,3v124c0,1.7,1.3,3,3,3h287c1.7,0,3-1.3,3-3v-124c0-1.7-1.3-3-3-3L110.5,81.6z"/>
	<circle class="st10" cx="188" cy="146.6" r="29.1"/>
	<path id="b71acdfd-6a55-428e-917a-53f192cb0203" class="st10" d="M253.7,142.7c-1.9,0-3.4,1.6-3.3,3.5c0,1.8,1.5,3.3,3.3,3.3h91.9
		c1.9,0,3.4-1.5,3.5-3.3c0-1.9-1.5-3.4-3.3-3.5c0,0-0.1,0-0.1,0H253.7z"/>
	<path id="ad4fbcfa-41b0-45f9-a593-23b6dc3fe165" class="st10" d="M253.7,123c-1.9,0-3.4,1.6-3.3,3.5c0,1.8,1.5,3.3,3.3,3.3h45.9
		c1.9,0,3.4-1.5,3.5-3.3s-1.5-3.4-3.3-3.5c0,0,0,0,0,0c0,0-0.1,0-0.1,0H253.7z"/>
	<path id="bce2a7cd-a325-424d-9b3a-f63d1dad5aba" class="st10" d="M253.7,163.4c-1.9,0-3.4,1.6-3.3,3.5c0,1.8,1.5,3.3,3.3,3.3h91.9
		c1.9,0,3.4-1.5,3.5-3.3c0-1.9-1.5-3.4-3.3-3.5c0,0-0.1,0-0.1,0H253.7z"/>
	
		<ellipse transform="matrix(0.9341 -0.357 0.357 0.9341 -87.3854 271.8365)" class="st9" cx="692.6" cy="372.6" rx="6.8" ry="21.5"/>
	<circle class="st9" cx="723.4" cy="414.1" r="43.1"/>
	<polygon class="st9" points="743,447.9 730,447.9 732.5,476 743.1,473.1 	"/>
	<polygon class="st9" points="714.5,448 701.4,448 704,476.1 714.1,473.1 	"/>
	
		<ellipse transform="matrix(0.9973 -7.291862e-02 7.291862e-02 0.9973 -32.6415 52.545)" class="st9" cx="703.3" cy="473.3" rx="10.9" ry="4.1"/>
	<circle class="st10" cx="722.3" cy="403.2" r="14.7"/>
	<circle class="st9" cx="722.3" cy="403.2" r="4.9"/>
	
		<ellipse transform="matrix(0.5941 -0.8044 0.8044 0.5941 3.0871 774.4154)" class="st9" cx="768.9" cy="384.1" rx="21.5" ry="6.8"/>
	<path class="st10" d="M702.4,436.3c0-3.5,8.9-10.3,18.9-10.3s19.2,9.8,19.2,13.3s-9.3-0.7-19.2-0.7S702.4,439.8,702.4,436.3z"/>
	<path class="st11" d="M844.2,378.5l-235.7-32.7c-3.8-0.5-6.5-4.1-6-7.9L629,146.8c0.5-3.8,4.1-6.5,7.9-6l235.7,32.7
		c3.8,0.5,6.5,4.1,6,7.9l-26.5,191.2C851.5,376.4,848,379.1,844.2,378.5z"/>
	<path class="st10" d="M759.7,318.9l-120.4-16.7c-0.2,0-0.3-0.1-0.4-0.1l70.6-90.7c1.3-1.8,3.9-2.1,5.6-0.8c0.6,0.4,1,1,1.3,1.7
		l29,71.5l1.4,3.4L759.7,318.9z"/>
	<polygon class="st12" points="759.7,318.9 718.6,313.2 742.9,286.7 744.6,284.8 745.5,283.8 746.9,287.2 	"/>
	<path class="st10" d="M826.7,328.2l-104.1-14.4l24.2-26.5l1.7-1.9l31.6-34.5c2.1-2,5.5-2,7.6,0.2c0.1,0.1,0.3,0.3,0.4,0.4
		c0.1,0.2,0.2,0.3,0.3,0.5L826.7,328.2z"/>
	<circle class="st10" cx="761.2" cy="224.2" r="18"/>
	
		<rect x="639.3" y="156.9" transform="matrix(0.1373 -0.9905 0.9905 0.1373 394.6357 788.9665)" class="st9" width="22" height="22"/>
	<path class="st13" d="M765.2,374.1c3.5-15.6-7.6-31.3-24.8-35.1s-33.9,5.7-37.4,21.2s7.9,21.3,25.1,25.2S761.7,389.7,765.2,374.1z"
		/>
	
		<ellipse transform="matrix(0.9973 -7.291862e-02 7.291862e-02 0.9973 -32.56 54.637)" class="st9" cx="732" cy="473.2" rx="10.9" ry="4.1"/>
</g>
<g id="Layer_2">
</g>
</svg>
